<svg height="512pt" viewBox="-50 0 512 512" width="512pt" xmlns="http://www.w3.org/2000/svg"><path d="m312 80h-71.910156l.679687 64.503906c.046875 4.121094 3.460938 7.496094 7.605469 7.496094 4.210938 0 7.625-3.414062 7.625-7.617188v-32.382812h16v32.382812c0 13.023438-10.601562 23.617188-23.625 23.617188-12.847656 0-23.4375-10.457031-23.613281-23.296875l-.683594-64.703125h-216.078125c-4.414062 0-8 3.574219-8 8v416c0 4.425781 3.585938 8 8 8h304c4.414062 0 8-3.574219 8-8v-416c0-4.425781-3.585938-8-8-8zm-184 48h32v16h-32zm-80 0h64v16h-64zm0 72c0-4.425781 3.585938-8 8-8h56v16h-48v64h64v-16h16v24c0 4.425781-3.585938 8-8 8h-80c-4.414062 0-8-3.574219-8-8zm96 208c0 4.425781-3.585938 8-8 8h-80c-4.414062 0-8-3.574219-8-8v-80c0-4.425781 3.585938-8 8-8h56v16h-48v64h64v-16h16zm-33.929688-18.800781c-1.445312 1.695312-3.535156 2.703125-5.765624 2.792969-.105469.007812-.199219.007812-.304688.007812-2.121094 0-4.152344-.839844-5.65625-2.34375l-24-24 11.3125-11.3125 17.886719 17.886719 42.378906-49.4375 12.148437 10.40625zm0-128c-1.445312 1.695312-3.535156 2.703125-5.765624 2.792969-.105469.007812-.199219.007812-.304688.007812-2.121094 0-4.152344-.839844-5.65625-2.34375l-24-24 11.3125-11.3125 17.886719 17.886719 42.378906-49.4375 12.148437 10.40625zm81.929688 202.800781h-32v-16h32zm80 0h-64v-16h64zm0-48h-96v-16h96zm0-40h-96v-16h96zm0-40h-96v-16h96zm0-48h-96v-16h96zm0-40h-96v-16h96zm0-40h-96v-16h96zm0 0"/><path d="m403 0h-288c-4.414062 0-8 3.574219-8 8v56h221c4.414062 0 8 3.574219 8 8v80h11v-104h-192v-16h192c8.824219 0 16 7.175781 16 16v112c0 4.425781-3.585938 8-8 8h-19v40h27v16h-27v32h27v16h-27v32h27v16h-27v32h27v16h-27v32h27v16h-27v48h67c4.414062 0 8-3.574219 8-8v-448c0-4.425781-3.585938-8-8-8zm0 0"/></svg>