<?xml version="1.0" encoding="iso-8859-1"?>
<!-- Generator: Adobe Illustrator 19.0.0, SVG Export Plug-In . SVG Version: 6.00 Build 0)  -->
<svg version="1.1" id="Layer_1" xmlns="http://www.w3.org/2000/svg" xmlns:xlink="http://www.w3.org/1999/xlink" x="0px" y="0px"
	 viewBox="0 0 335.585 335.585" style="enable-background:new 0 0 335.585 335.585;" xml:space="preserve">
<g>
	<g>
		<polygon points="128.735,307.343 252.628,335.585 260.201,302.362 106.877,302.362 		"/>
		<polygon points="289.201,50.248 289.201,175.145 316.265,56.417 		"/>
		<path d="M19.32,286.331h253.85V0H19.32V286.331z M63.956,129.311c-1.178,1.316-2.811,1.992-4.449,1.992
			c-1.413,0-2.831-0.497-3.973-1.516c-2.458-2.191-2.668-5.965-0.476-8.422c13.65-15.299,38.528-33.29,80.789-35.871V67.543
			c-32.942,2.258-52.245,14.971-62.838,25.83c-1.951,1.992-5.146,2.043-7.153,0.087c-1.997-1.951-2.038-5.151-0.087-7.153
			C77.693,74.081,99.32,59.74,135.846,57.405v-2.079h21.427v2.14c35.907,2.555,56.535,17.26,69.207,28.605
			c2.079,1.859,2.253,5.059,0.394,7.137c-0.998,1.116-2.386,1.685-3.768,1.685c-1.203,0-2.411-0.425-3.374-1.29
			c-11.438-10.24-30.024-23.491-62.454-25.999v17.951c41.626,2.826,65.367,21.304,79.882,35.512
			c2.355,2.304,2.396,6.077,0.097,8.433c-2.304,2.36-6.077,2.396-8.433,0.087c-13.03-12.744-34.284-29.281-71.542-32.067v17.05
			c41.626,2.826,65.367,21.304,79.882,35.507c2.355,2.304,2.396,6.083,0.097,8.438c-2.304,2.355-6.077,2.396-8.433,0.092
			c-13.03-12.744-34.294-29.276-71.542-32.061v17.05c41.626,2.826,65.367,21.304,79.882,35.507c2.355,2.304,2.396,6.083,0.097,8.438
			c-2.304,2.35-6.077,2.391-8.433,0.092c-13.03-12.744-34.294-29.276-71.542-32.061v17.51c36.393,3.144,57.221,21.437,69.99,35.543
			c2.079,2.299,1.899,5.852-0.394,7.931c-2.289,2.079-5.847,1.899-7.931-0.394c-11.336-12.518-29.722-28.698-61.665-31.8v38.677
			c0,0.026,0.005,0.046,0.005,0.072c0,0.026-0.005,0.046-0.005,0.072v0.159h-0.015c-0.123,5.811-4.854,10.486-10.696,10.486
			c-5.842,0-10.568-4.68-10.696-10.486h-0.02v-39.06c-32.476,2.79-51.558,18.324-62.049,31.601
			c-1.111,1.398-2.749,2.135-4.413,2.135c-1.213,0-2.442-0.399-3.477-1.213c-2.432-1.92-2.847-5.453-0.922-7.89
			c12.022-15.201,33.864-33.034,70.866-35.907v-17.51c-37.791,2.499-59.843,18.34-71.89,31.846
			c-1.178,1.316-2.811,1.992-4.449,1.992c-1.413,0-2.831-0.497-3.973-1.516c-2.458-2.191-2.668-5.965-0.476-8.422
			c13.65-15.299,38.528-33.29,80.789-35.866v-17.06c-37.816,2.524-59.868,18.365-71.916,31.867
			c-1.178,1.316-2.811,1.992-4.449,1.992c-1.413,0-2.831-0.502-3.973-1.516c-2.458-2.191-2.668-5.965-0.476-8.422
			c13.65-15.299,38.528-33.29,80.789-35.866v-17.06C98.061,99.968,76.004,115.809,63.956,129.311z"/>
	</g>
</g>
<g>
</g>
<g>
</g>
<g>
</g>
<g>
</g>
<g>
</g>
<g>
</g>
<g>
</g>
<g>
</g>
<g>
</g>
<g>
</g>
<g>
</g>
<g>
</g>
<g>
</g>
<g>
</g>
<g>
</g>
</svg>
