<?xml version="1.0" encoding="iso-8859-1"?>
<!-- Generator: Adobe Illustrator 16.0.0, SVG Export Plug-In . SVG Version: 6.00 Build 0)  -->
<!DOCTYPE svg PUBLIC "-//W3C//DTD SVG 1.1//EN" "http://www.w3.org/Graphics/SVG/1.1/DTD/svg11.dtd">
<svg version="1.1" id="Capa_1" xmlns="http://www.w3.org/2000/svg" xmlns:xlink="http://www.w3.org/1999/xlink" x="0px" y="0px"
	 width="31.837px" height="31.836px" viewBox="0 0 31.837 31.836" style="enable-background:new 0 0 31.837 31.836;"
	 xml:space="preserve">
<g>
	<g>
		<path d="M20.139,12.513c1.5-0.158,2.875,0.659,3.491,1.938c0.259,0.418,1.378,1.715,5.549,1.504l2.658-0.28V4.404
			c0-0.76-0.616-1.375-1.376-1.375h-4.021c-0.76,0-1.375,0.616-1.375,1.375v1.763c0,0.759-0.615,1.376-1.375,1.376H8.205
			c-0.76,0-1.375-0.616-1.375-1.376V4.404c0-0.76-0.616-1.375-1.376-1.375H1.375C0.615,3.029,0,3.646,0,4.404v22.309l1.79-1.645
			c0.002-0.103,0.235-0.398,0.781-0.959c2.396-2.455,2.682-4.05,2.625-4.802c-0.042-0.151-0.076-0.306-0.097-0.461
			c-0.013-0.03-0.02-0.046-0.02-0.046l0.013-0.012c-0.13-1.074,0.24-2.191,1.096-2.981c1.412-1.3,3.607-1.211,4.903,0.195
			c0.43,0.466,0.705,1.019,0.831,1.595c0.173,0.489,0.683,1.506,2.07,2.18c0.531,0.18,1.024,0.49,1.43,0.932
			c1.295,1.406,1.203,3.6-0.209,4.9c-1.109,1.021-2.703,1.185-3.964,0.524c-0.461-0.183-2.149-0.532-5.361,2.123l-3.885,3.579
			h28.458c0.76,0,1.376-0.616,1.376-1.375v-9.639l-1.265,0.134c-0.061,0.079-0.418,0.18-1.19,0.304
			c-3.387,0.54-4.562,1.648-4.969,2.285c-0.056,0.148-0.122,0.293-0.196,0.431c-0.009,0.032-0.01,0.05-0.01,0.05l-0.02,0.002
			c-0.533,0.938-1.498,1.615-2.656,1.736c-1.909,0.2-3.616-1.18-3.817-3.083c-0.067-0.634,0.044-1.246,0.29-1.786
			c0.15-0.5,0.342-1.613-0.365-2.972c-0.318-0.462-0.529-1.006-0.593-1.603C16.848,14.417,18.23,12.713,20.139,12.513z
			 M15.124,17.62c-0.945,0.252-2.85-2.299-2.85-2.299c-1.279-1.449,2.384-2.891,2.984-2.45C15.857,13.31,16.066,17.368,15.124,17.62
			z"/>
		<path d="M23.521,1.375c0-0.76-0.617-1.375-1.377-1.375H9.75C8.99,0,8.375,0.616,8.375,1.375v3.307
			c0,0.759,0.615,1.375,1.375,1.375h12.395c0.76,0,1.375-0.616,1.375-1.375V1.375H23.521z"/>
	</g>
</g>
<g>
</g>
<g>
</g>
<g>
</g>
<g>
</g>
<g>
</g>
<g>
</g>
<g>
</g>
<g>
</g>
<g>
</g>
<g>
</g>
<g>
</g>
<g>
</g>
<g>
</g>
<g>
</g>
<g>
</g>
</svg>
